<svg width="100" height="106" fill="none" xmlns="http://www.w3.org/2000/svg"><circle cx="50" cy="56" r="50" fill="#68B738"/><g clip-path="url(#a)"><path d="M69.84 0h-.38A3.50024 3.50024 0 0 0 68 1.59 15.53973 15.53973 0 0 0 66.71 5a1.62981 1.62981 0 0 1-.5108.92311A1.63018 1.63018 0 0 1 65.23 6.34a7.34012 7.34012 0 0 0-3.0527 1.28443A7.34044 7.34044 0 0 0 60 10.12a27.31043 27.31043 0 0 0-1.85 4c-1.42 3.68-2.51 7.48-3.85 11.19C53.67 27 53.64 27 51.74 27c-2.27 0-2.11-.35-2.14 2.15 0 .79.24 1.19 1.08 1.15.26 0 .65-.13.75.21.1.34-.24.49-.44.69a9.00081 9.00081 0 0 1-4.33 2.44c-1.9.51-3.84.91-5.69 1.53-4.75 1.59-9.14 3.81-12.56 7.57a28.00046 28.00046 0 0 0-4.74 7.84c-3.67 8.64-5.45 17.74-6.83 26.93-.65 4.31-1.11 8.64-1.46 13C15.2 92.65 15 94.82 15 97h33.33a2.18047 2.18047 0 0 0-.23-1.28 4.99945 4.99945 0 0 0-1.5123-2.0373A5.0002 5.0002 0 0 0 44.27 92.65c-.7-.16-.78-.37-.35-.92a10.34838 10.34838 0 0 0 1.59-3.1c1.63-4.81 2.26-9.83 3.05-14.8A30.0011 30.0011 0 0 1 52 63a21.60063 21.60063 0 0 1 5.59-6.37c.83-.63.86-.63 1 .44.1.71.12 1.44.17 2.16a93.23149 93.23149 0 0 1-.18 14.18 61.6687 61.6687 0 0 0-.15 11A75.16008 75.16008 0 0 0 60.7 97H74a5.41007 5.41007 0 0 0-1.4292-2.8797A5.41018 5.41018 0 0 0 69.76 92.56a9.00034 9.00034 0 0 0-3.76.2c-.6.14-.85 0-.9-.65a56.35116 56.35116 0 0 1 1-15.82 177.73433 177.73433 0 0 0 3.06-18.18 17.75048 17.75048 0 0 1 2.28-7c1.19-2.12 2.23-4.32 3.4-6.45a5.8713 5.8713 0 0 0 .817-2.5459 5.86997 5.86997 0 0 0-.397-2.6441c-.27-.71-.53-1.43-.86-2.11-1-1.95-2-3.88-2.92-5.85-.49-1-.38-1.12.71-1.15 1.63 0 1.63 0 1.66-1.64v-.66c0-.69-.26-1.07-1-1h-1.52c-.69 0-.89-.29-.72-1a6.2403 6.2403 0 0 1 1.9111-2.9723A6.23993 6.23993 0 0 1 75.74 21.63a22.00092 22.00092 0 0 1 6.62.43.9996.9996 0 0 0 .7562-.0637.99975.99975 0 0 0 .4938-.5763c.4-1 .84-2 1.29-3a.99973.99973 0 0 0 .1292-.5857A1.00028 1.00028 0 0 0 84.8 17.28C81.6 13.22 78.13 9.43 73.4 7a1.49007 1.49007 0 0 1-.88-1.12 19.5985 19.5985 0 0 0-1.27-4.16A3.50006 3.50006 0 0 0 69.84 0Z" fill="#000"/></g><defs><clipPath id="a"><path fill="#fff" d="M15 0h70v97H15z"/></clipPath></defs></svg>