<svg width="134" height="100" fill="none" xmlns="http://www.w3.org/2000/svg"><circle cx="69" cy="50" r="50" fill="#68B738"/><g clip-path="url(#a)"><path d="M123.118 25.7569c1.155-1.837 2.689-3.4054 4.5-4.6 1-.7 1.6-.7 2.2.6.8 1.9 1.5 3.9.9 6-.109.3561-.13.7335-.06 1.0995.07.3659.228.7094.46 1.0005.6.8 1.1 1.6 1.6 2.3.681.8637 1.122 1.8913 1.28 2.9795a6.26828 6.26828 0 0 1-.38 3.2205c-.367.9918-.436 2.0692-.2 3.1.2.99.2 2.0099 0 3a3.75154 3.75154 0 0 1-.862 2.0119c-.481.57-1.121.9836-1.838 1.1881-1.279.2433-2.42.9568-3.2 2-.094.1536-.227.2803-.384.3678-.158.0876-.335.1331-.516.1322-1.2.2-4.2-2.5-4.2-3.7v-.6c.1-3.6-.1-3.9-3.4-5.4-.69-.2436-1.309-.6562-1.8-1.2-.6-.8-1.4-.7-2.3-.4-.9.3-1.4.9-1.3 1.9.302 2.4208.402 4.8625.3 7.3.007.2781.075.5514.2.8 3.1 4.5 4.3 9.8 5.8 14.9 1.2 3.9 3.4 6 7.4 6.3.64.051 1.276.1513 1.9.3.822.132 1.585.5075 2.192 1.078.606.5705 1.027 1.3096 1.208 2.122.7 2.1.3 2.6-1.8 2.6h-6.5c-.841.0425-1.666-.2445-2.3-.8-1.012-.8542-2.162-1.5304-3.4-2-1.369-.5053-2.553-1.4114-3.4-2.6-1.171-1.6366-2.512-3.1449-4-4.5-2.8-2.9-5.8-5.7-8.4-8.7-1.979-2.0442-3.1207-4.7557-3.1998-7.6 0-.9-.2-1.3-1.2-.9a1.93109 1.93109 0 0 1-1 .3c-2.8 0-4.2 1.7-5.2 4.2-.9 2.1-2.1 4.1-3.2 6.2a10.39085 10.39085 0 0 0-1 4.2c0 2.4.6 3.2 2.8 4 1.4.5 2.7 1 3.4 2.4.8 1.6.6 2-1.1 2.1h-6.8a1.8799 1.8799 0 0 1-1.1272-.2439 1.88062 1.88062 0 0 1-.7728-.8561l-1.8-3a6.04903 6.04903 0 0 1-.9918-2.6168 6.0502 6.0502 0 0 1 .2918-2.7832 11.8592 11.8592 0 0 0 .1-5.3 8.42078 8.42078 0 0 1 .0637-3.691 8.41816 8.41816 0 0 1 1.6363-3.309c.6-.7.6-1-.4-1.2a50.06755 50.06755 0 0 1-11.8-4.1.10033.10033 0 0 1-.0707-.0293.10033.10033 0 0 1-.0293-.0707c-3.2-1.2-3.8-1-4.7 2.3-.8 2.8-1.6 5.6-2.2 8.5-.7 3.2.1 6.2 1.1 9.2.4 1.2 1.6 1.1 2.5 1.4 2 .6 3.7 1.4 4.5 3.5.7 1.6.6 1.8-1.1 1.8-1.7 0-3.4-.1-5.2 0a6.64097 6.64097 0 0 1-4.2-1.4c-4.8-3.2-6.2-8.1-6.6-13.4-.2-3.3-2-5.9-4.1-8.4-.4-.5-.8-.7-1.4-.3a44.3221 44.3221 0 0 1-6.7 3c-4.8257 1.7039-9.0603 4.7584-12.2 8.8a10.62997 10.62997 0 0 0-2.2 5.1c-.3 1.8.2 2.6 2 3.1s2.7 1.5 2.9 3.4c.1.8-.2 1.2-1 1.2h-8.1a1.64953 1.64953 0 0 1-.748-.2407 1.65085 1.65085 0 0 1-.552-.5593 8.56085 8.56085 0 0 1-1.9-5.5 50.60567 50.60567 0 0 1 .9-10.3 6.29966 6.29966 0 0 1 1.1054-2.8212 6.29992 6.29992 0 0 1 2.2946-1.9788c5.9-2.8 9-8.1 11.8-13.6.6-1.1.1-1.3-.9-1.2a16.47 16.47 0 0 0-7.7 3.2 70.62241 70.62241 0 0 0-8.3 7.1c-2.7503 2.7936-6.3973 4.5286-10.3 4.9-7.29997.4-10.69997-3.7-10.39997-10.3.06706-2.2504.91565-4.4073 2.4-6.1a4.24947 4.24947 0 0 1 2.02127-1.4362 4.24972 4.24972 0 0 1 2.47873-.0638c1.5.4 1.9 1.2 1.3 2.7-.3.6-.7 1.1-1 1.7a7.49905 7.49905 0 0 0-1 2c-1.1 3 .4 5.1 3.5 5.4 3.29997.3 5.99997-1.1 8.49997-3.1a44.9403 44.9403 0 0 0 8-8.3 20.7893 20.7893 0 0 1 6.3609-5.5419 20.78825 20.78825 0 0 1 8.0391-2.5581c2.3-.3 4.3-1.3 6.5-1.9a41.50814 41.50814 0 0 1 12.7-1.8 13.00217 13.00217 0 0 0 5.8-1.1c4.9-2 10-2 15.1-1 4 .8 8 1.8 11.9 2.8 2.321.4324 4.7075.3642 7-.2a67.78791 67.78791 0 0 1 13.3998-2c2.963-.1442 5.915.4395 8.6 1.7 2 .9 2 .9 1.5 2.8Z" fill="#000"/></g><defs><clipPath id="a"><path fill="#fff" d="M0 20h134v56H0z"/></clipPath></defs></svg>