<svg width="25" height="28" fill="none" xmlns="http://www.w3.org/2000/svg"><path d="M24.7754.767C24.6751.317 24.2963 0 23.8641 0h-.0056C18.9207.033 6.91319.916 2.06538 8.38c-2.51813 3.878-2.73469 8.913-.64406 14.965.01593.047.04875.079.07031.122C.74444 25.44.45475 26.753.44725 26.79c-.10875.54.2147 1.072.72094 1.188a.88032.88032 0 0 0 .19688.022c.43218 0 .82125-.321.91593-.79.01969-.102 2.40844-10.373 10.8534-16.378.4313-.306.5475-.927.2597-1.387-.2878-.46-.869-.585-1.3003-.277-4.78873 3.405-7.73811 8.008-9.47248 11.656-1.24125-4.578-.91594-8.377.98625-11.305C7.351 3.755 16.2301 2.365 21.5898 2.071 20.4366 3.872 19.1766 7.174 19.1766 13c0 3.12-.8297 5.522-2.4647 7.14-2.6212 2.591-6.87933 2.834-9.99371 2.584-.5175-.045-.96656.371-1.00594.922-.03937.55.34782 1.03.86344 1.072.62344.051 1.28906.082 1.98094.082 3.17067 0 6.86907-.663 9.42937-3.194 2.0344-2.011 3.0656-4.906 3.0656-8.605 0-9.099 3.2157-11.096 3.2316-11.105.39-.209.5944-.677.4922-1.129Z" fill="#fff"/></svg>