<svg width="21" height="18" fill="none" xmlns="http://www.w3.org/2000/svg"><path fill-rule="evenodd" clip-rule="evenodd" d="M19.9608.1529a.65654.65654 0 0 1 .2264.61158L17.5611 16.5214a.65688.65688 0 0 1-.3866.4945.6564.6564 0 0 1-.6252-.0562l-7.87848-5.2523a.65654.65654 0 0 1-.14849-.9564L11.133 7.48773 6.77303 10.3944c-.19603.1306-.44706.1463-.65779.0409L.86294 7.80915c-.23525-.11762-.3776-.36427-.36174-.6268.01585-.26252.18684-.49025.43453-.57871L19.3188.03826a.65657.65657 0 0 1 .642.11465ZM2.82626 7.32275l3.53542 1.76771L13.9231 4.0495c.2694-.17956.6294-.13601.8481.1026.2188.2386.231.60104.0288.85381L9.99502 11.0121l6.43778 4.2918 2.2755-13.65332L2.82626 7.32275Z" fill="#666"/></svg>