<svg viewBox="0 0 61 60" fill="none" xmlns="http://www.w3.org/2000/svg"><path fill="#68B738" d="M.5 0h60v60H.5z"/><path d="M23.538 15c-1.063 0-1.063 1.5831 0 1.5831h6.6435v1.6042C23.3786 18.62 18 24.4142 18 31.4854c0 4.0105 1.7432 7.6305 4.4963 10.0685.4783.4221.5421 1.1715.1063 1.6358l-1.5307 1.5515c-.744.686.3614 1.7519 1.0311 1.0026l1.9984-2.0369c.3507-.3377.8716-.4222 1.3074-.2111 1.7186.8439 3.6081 1.2882 5.5253 1.2992 1.9172.0109 3.8118-.4117 5.5401-1.2359.4251-.2111.9566-.1266 1.2968.2111l1.9345 1.9736c.6803.6332 1.6583-.3166 1.0417-1.0026l-1.4456-1.4776c-.4464-.4538-.3826-1.2031.1063-1.6359 1.4505-1.2692 2.6107-2.8318 3.4027-4.583.792-1.7511 1.1975-3.6503 1.1893-5.5699 0-7.0712-5.4105-12.8759-12.224-13.2875v-1.6042h6.6435c1.0629 0 1.0629-1.5831 0-1.5831H23.538Zm-4.103 16.4748c0-6.5329 5.1766-11.8205 11.5649-11.8205 6.3778 0 11.5544 5.2876 11.5544 11.8205 0 6.5435-5.1766 11.8416-11.5544 11.8416-6.3777 0-11.5649-5.2981-11.5649-11.8416Zm10.7571-8.0949c0-1.0976 1.6582-1.0976 1.6582 0v8.6332c0 .2239-.0896.4386-.2491.597-.1594.1583-.3757.2473-.6013.2473-.2124 0-.4163-.0831-.5675-.2312-.1512-.1482-.2375-.3495-.2403-.5604v-8.6859Zm-4.9746 2.6174c.3072 0 .6019-.1212.8192-.337.2173-.2157.3394-.5083.3394-.8134 0-.3051-.1221-.5977-.3394-.8135-.2173-.2157-.512-.3369-.8192-.3369-.2868.0274-.553.1598-.7468.3716-.1937.2117-.301.4875-.301.7735 0 .2861.1073.5618.301.7736.1938.2117.46.3441.7468.3715v.0106Zm11.5543 0c.3073 0 .602-.1212.8193-.337.2172-.2157.3393-.5083.3393-.8134 0-.3051-.1221-.5977-.3393-.8135-.2173-.2157-.512-.3369-.8193-.3369-.2868.0274-.553.1598-.7467.3716-.1938.2117-.3011.4875-.3011.7735 0 .2861.1073.5618.3011.7736.1937.2117.4599.3441.7467.3715v.0106ZM26.3761 38.5882c0 1.5303-2.3173 1.5303-2.3173 0s2.3173-1.5303 2.3173 0Zm4.6238 3.4406c.1608.0153.323-.0029.4763-.0534.1532-.0506.2941-.1324.4137-.2402.1195-.1079.215-.2393.2804-.3859.0653-.1467.0991-.3053.0991-.4656 0-.1604-.0338-.3189-.0991-.4656a1.15178 1.15178 0 0 0-.2804-.3859 1.16233 1.16233 0 0 0-.4137-.2402 1.1652 1.1652 0 0 0-.4763-.0534c-.2867.0273-.553.1598-.7467.3715-.1937.2118-.301.4875-.301.7736 0 .286.1073.5618.301.7735.1937.2118.46.3442.7467.3716Zm-8.089-10.3851a1.1423 1.1423 0 0 1-.0539.4728 1.14799 1.14799 0 0 1-.2419.4108 1.1582 1.1582 0 0 1-.3887.2784 1.1653 1.1653 0 0 1-.4689.0984c-.1615 0-.3212-.0335-.4689-.0984a1.1588 1.1588 0 0 1-.3886-.2784 1.14968 1.14968 0 0 1-.242-.4108 1.14392 1.14392 0 0 1-.0538-.4728c.0276-.2848.161-.5491.3743-.7414.2132-.1924.491-.299.779-.299.2881 0 .5659.1066.7791.299.2133.1923.3467.4566.3743.7414ZM40.237 32.794c.1608.0154.323-.0028.4762-.0534a1.1604 1.1604 0 0 0 .4138-.2402c.1195-.1078.215-.2393.2804-.3859.0653-.1466.0991-.3052.0991-.4656 0-.1603-.0338-.3189-.0991-.4655a1.15079 1.15079 0 0 0-.2804-.3859 1.15893 1.15893 0 0 0-.4138-.2402 1.1663 1.1663 0 0 0-.4762-.0535c-.2868.0274-.553.1599-.7467.3716-.1937.2117-.3011.4875-.3011.7735 0 .2861.1074.5619.3011.7736.1937.2117.4599.3442.7467.3715Zm-2.3066 5.8047c0 1.5198-2.3172 1.5198-2.3172-.0105s2.3172-1.5303 2.3172 0v.0105Z" fill="#fff"/></svg>
