<svg width="80" height="83" fill="none" xmlns="http://www.w3.org/2000/svg"><path d="M65.657 35.8291H14.3907c-1.7994 0-3.2631-1.4631-3.2631-3.2619v-9.7725c0-1.7987 1.4637-3.2625 3.2631-3.2625h51.2656c1.7988 0 3.2619 1.4638 3.2619 3.2625v9.7731c.0006 1.7982-1.4625 3.2613-3.2612 3.2613ZM14.3907 22.0322c-.4137 0-.7631.3494-.7631.7625v9.7731c0 .42.3425.7619.7631.7619h51.2656c.42 0 .7619-.3419.7619-.7619v-9.7731c0-.4137-.3494-.7625-.7619-.7625H14.3907Z" fill="#fff"/><path d="M58.5074 69.3078h-36.97c-3.4638 0-6.2819-2.8174-6.2819-6.2818V34.5791c0-.69.56-1.25 1.25-1.25s1.25.56 1.25 1.25V63.026c0 2.0856 1.6969 3.7818 3.7819 3.7818h36.97c2.0844 0 3.7806-1.6962 3.7806-3.7818V34.5791c0-.69.56-1.25 1.25-1.25s1.25.56 1.25 1.25V63.026c0 3.4644-2.8175 6.2818-6.2806 6.2818Z" fill="#fff"/><path d="M40.0231 69.3078c-.69 0-1.25-.5593-1.25-1.25V34.5791c0-.69.56-1.25 1.25-1.25s1.25.56 1.25 1.25v33.4781c0 .6913-.5594 1.2506-1.25 1.2506ZM24.4219 22.0278c-3.9125-2.12-5.3725-7.0275-3.2544-10.9406 2.1169-3.91128 7.0237-5.3719 10.9381-3.25565 5.9631 3.22995 9.1831 12.24125 9.3169 12.62315l-2.3581.8293c-.03-.085-3.0382-8.4856-8.1482-11.2537-2.7031-1.46125-6.0893-.4525-7.55 2.2469-1.4618 2.7018-.4543 6.0893 2.2475 7.5525l-1.1918 2.1981Z" fill="#fff"/><path d="m55.6218 22.0277-1.19-2.1987c1.3094-.7094 2.2638-1.885 2.6888-3.3106.4244-1.4263.2675-2.9325-.4419-4.2407-.7075-1.3093-1.8825-2.2631-3.3081-2.68747-1.4263-.42438-2.9313-.26813-4.24.43997-5.11 2.7675-8.1181 11.1682-8.1481 11.2532l-2.3582-.8294c.1338-.3819 3.3532-9.3931 9.3163-12.62252 1.895-1.02625 4.0781-1.2525 6.1431-.6375 2.0669.61437 3.7688 1.9975 4.7944 3.89312 1.0269 1.895 1.2537 4.0769.6387 6.1438-.6156 2.0662-1.9987 3.7693-3.895 4.7968ZM63.538 52.5688H16.5055c-.69 0-1.25-.56-1.25-1.25s.56-1.25 1.25-1.25H63.538c.69 0 1.25.56 1.25 1.25s-.5593 1.25-1.25 1.25Z" fill="#fff"/></svg>